<?xml version="1.0" encoding="UTF-8"?>
<svg width="32px" height="32px" viewBox="0 0 32 32" version="1.1" xmlns="http://www.w3.org/2000/svg" xmlns:xlink="http://www.w3.org/1999/xlink">
    <title>ic/meteo/noche/32/n200</title>
    <g id="ic/meteo/noche/32/n200" stroke="none" stroke-width="1" fill="none" fill-rule="evenodd">
        <path d="M21.2201675,3.04675368 C22.6606824,2.12842652 24.3800067,1.79009546 26.0296286,2.12842652 C26.2155015,2.17675953 26.3316721,2.32175855 26.3549062,2.49092408 C26.3781403,2.66008961 26.2852038,2.82925514 26.1225651,2.90175466 C25.9134581,2.99842068 25.704351,3.09508669 25.5184781,3.21591921 C23.1253646,4.73840899 22.381873,8.00088707 23.8456221,10.490037 C25.0073277,12.4958569 27.353973,13.4383505 29.5147454,12.8341879 C29.6773842,12.7858549 29.8632571,12.8583544 29.9329594,13.0033535 C30.0258959,13.1483525 30.0258959,13.3416845 29.9097253,13.4866836 C29.4450431,14.0666797 28.8874244,14.5741762 28.2601034,14.9608403 C27.1913342,15.6375024 25.9831604,16 24.7517525,16 L25.0315825,15.9936954 C24.6239484,13.3327559 22.2477105,11.3076923 19.3998537,11.3076923 L19.1125585,11.3146312 C18.8735532,11.3261929 18.6370147,11.3521328 18.4041178,11.3919244 C17.9545944,10.1143588 17.8709272,8.72872753 18.1997329,7.39672446 C18.6179469,5.56007013 19.6867161,4.03758036 21.2201675,3.04675368 Z" id="Combined-Shape" fill="#FCB400"></path>
        <path d="M19.3998537,12.8076923 C21.7231011,12.8076923 23.5933181,14.6056018 23.5933181,16.8075889 C23.5933181,16.9737033 23.5816491,17.1440707 23.5588027,17.3190005 L23.4240113,18.3510682 L24.4572273,18.2253812 C24.6368638,18.2035291 24.8180061,18.1925146 25.0005574,18.1925146 C27.3224856,18.1925146 29.1923077,19.9905374 29.1923077,22.1922376 C29.1923077,24.394295 27.3225661,26.1923077 25.0005574,26.1923077 L6.99971326,26.1923077 C4.67752623,26.1923077 2.80769231,24.3942959 2.80769231,22.1922376 C2.80769231,19.9905909 4.67764004,18.1925146 6.99971326,18.1925146 L7.17569434,18.1986384 L7.41267283,18.2172401 L7.7083095,18.2485271 L8.58440473,18.3504058 L8.60898375,17.4687494 C8.669103,15.3122545 10.51989,13.5768163 12.8001456,13.5768163 C13.6732806,13.5768163 14.5038064,13.8312317 15.2022903,14.2980734 L15.7777089,14.6826626 L16.245923,14.1729656 C17.0369855,13.3118165 18.1743183,12.8076923 19.3998537,12.8076923 Z" id="Path" fill="#B0B0B0" fill-rule="nonzero"></path>
    </g>
</svg>