<?xml version="1.0" encoding="iso-8859-1"?>
<!-- Uploaded to: SVG Repo, www.svgrepo.com, Generator: SVG Repo Mixer Tools -->
<svg fill="#000000" height="800px" width="800px" version="1.1" id="Layer_1" xmlns="http://www.w3.org/2000/svg" xmlns:xlink="http://www.w3.org/1999/xlink" 
	 viewBox="0 0 512.065 512.065" xml:space="preserve">
<g transform="translate(0 -1)">
	<g>
		<g>
			<path d="M437.306,236.734c-2.602,1.509-4.143,2.377-5.688,3.187c-85.661,44.923-189.894,8.612-233.056-81.658
				c-19.572-40.956-23.671-87.113-12.439-130.52c4.733-18.289-14.886-33.25-31.271-23.848
				C53.116,62.277,13.623,194.115,65.477,302.556c14.695,30.697,35.695,57.016,61.534,77.799c9.181,7.384,22.61,5.928,29.994-3.253
				c7.384-9.181,5.928-22.61-3.253-29.994c-20.904-16.814-37.875-38.083-49.787-62.967
				c-34.832-72.844-19.134-158.656,33.378-213.027c-0.764,36.067,6.79,72.207,22.723,105.549
				c46.679,97.624,152.086,144.69,249.507,117.65c-11.305,20.261-26.328,38.236-44.424,52.799
				c-9.179,7.387-10.631,20.816-3.244,29.995s20.816,10.631,29.995,3.244c37.714-30.353,64.534-72.51,76.762-119.825
				C473.401,242.193,453.685,227.234,437.306,236.734z"/>
			<path d="M185.769,433.98c-8.331-8.331-21.839-8.331-30.17,0l-42.667,42.667c-8.331,8.331-8.331,21.839,0,30.17
				c8.331,8.331,21.839,8.331,30.17,0l42.667-42.667C194.1,455.819,194.1,442.311,185.769,433.98z"/>
			<path d="M228.436,421.484l21.333-21.333c8.331-8.331,8.331-21.839,0-30.17c-8.331-8.331-21.839-8.331-30.17,0l-21.333,21.333
				c-8.331,8.331-8.331,21.839,0,30.17C206.597,429.815,220.104,429.815,228.436,421.484z"/>
			<path d="M219.599,455.314l-21.333,21.333c-8.331,8.331-8.331,21.839,0,30.17c8.331,8.331,21.839,8.331,30.17,0l21.333-21.333
				c8.331-8.331,8.331-21.839,0-30.17C241.438,446.982,227.93,446.982,219.599,455.314z"/>
			<path d="M304.932,369.98l-42.667,42.667c-8.331,8.331-8.331,21.839,0,30.17c8.331,8.331,21.839,8.331,30.17,0l42.667-42.667
				c8.331-8.331,8.331-21.839,0-30.17C326.771,361.649,313.264,361.649,304.932,369.98z"/>
		</g>
	</g>
</g>
</svg>